/* XPM */
static char *play_xpm[] = {
/* columns rows colors chars-per-pixel */
"16 16 2 1 ",
"  c #17BA2E",
". c None",
/* pixels */
"................",
"................",
"................",
"...  ...........",
"...    .........",
"...      .......",
"...        .....",
"...          ...",
"...          ...",
"...        .....",
"...      .......",
"...    .........",
"...  ...........",
"................",
"................",
"................"
};
