/* XPM */
static char *refresh_xpm[] = {
/* columns rows colors chars-per-pixel */
"16 16 10 1 ",
"  c gray15",
". c #272727",
"X c gray16",
"o c gray17",
"O c #2C2C2C",
"+ c #2D2D2D",
"@ c gray18",
"# c #2F2F2F",
"$ c gray19",
"% c None",
/* pixels */
"%%oo%%%%%%%%%%%%",
"%%$$$$$$$$$@%%%%",
"%%$$$$$$$$$$$%%%",
"%#$$$$$$$$$$$$%%",
"%$$$$$$$+%%%%%+%",
"%$$$$$$%%%%%%%%%",
"%#$$$$$%%%%%%%%%",
"%%%%%% %%%%%%%%%",
"%%%%%%%%%.%%%%%%",
"%%%%%%%%%$$$$$#%",
"%%%%%%%%%#$$$$$%",
"%@%%%%%+$$$$$$$%",
"%%$$$$$$$$$$$$#%",
"%%%$$$$$$$$$$$%%",
"%%%%O$$$$$$#$$%%",
"%%%%%%%%%%%%XO%%"
};
