/* XPM */
static char *stop_xpm[] = {
/* columns rows colors chars-per-pixel */
"16 16 2 1 ",
"  c #ED1F24",
". c None",
/* pixels */
"................",
"................",
"................",
"...          ...",
"...          ...",
"...          ...",
"...          ...",
"...          ...",
"...          ...",
"...          ...",
"...          ...",
"...          ...",
"...          ...",
"................",
"................",
"................"
};
